<?xml version="1.0" encoding="UTF-8"?>
<svg id="Livello_1" data-name="Livello 1" xmlns="http://www.w3.org/2000/svg" viewBox="0 0 83 20">
  <defs>
    <style>
      .cls-1 {
        fill: #fff;
      }
    </style>
  </defs>
  <path class="cls-1" d="M34.75,19.75V6.24h-.09l-5.43,13.5h-2.07l-5.45-13.5h-.09v13.5h-2.55V1.4h3.24l5.83,14.62h.1l5.82-14.62h3.25v18.35h-2.56ZM51.4,19.75h-2.59v-2.26h-.06c-.72,1.6-2.06,2.5-4.07,2.5-2.86,0-4.61-1.89-4.61-4.96V6.37h2.7v8.12c0,2.03.95,3.13,2.81,3.13s3.12-1.37,3.12-3.46v-7.79h2.7v13.38h0ZM58.8,6.13c3.06,0,5.05,1.73,5.13,4.2h-2.54c-.15-1.3-1.09-2.11-2.6-2.11s-2.44.72-2.44,1.79c0,.84.6,1.41,2.02,1.74l2.14.5c2.69.64,3.71,1.7,3.71,3.64,0,2.44-2.24,4.12-5.33,4.12-3.28,0-5.26-1.64-5.51-4.18h2.67c.25,1.4,1.19,2.09,2.84,2.09s2.62-.69,2.62-1.78c0-.86-.49-1.37-1.92-1.7l-2.14-.51c-2.5-.59-3.74-1.81-3.74-3.75,0-2.39,2.05-4.03,5.07-4.03ZM66.1,2.84c0-.88.7-1.58,1.56-1.58s1.55.7,1.55,1.58-.69,1.58-1.55,1.58c-.86,0-1.56-.71-1.56-1.58h0ZM66.31,6.37h2.7v13.38h-2.7V6.37ZM80.4,10.97c-.28-1.42-1.32-2.56-3.08-2.56-2.09,0-3.46,1.77-3.46,4.64s1.39,4.64,3.49,4.64c1.66,0,2.75-.93,3.06-2.48h2.6c-.29,2.85-2.52,4.78-5.68,4.78-3.76,0-6.21-2.62-6.21-6.94s2.45-6.93,6.18-6.93c3.39,0,5.45,2.21,5.68,4.84h-2.57ZM10.82,3.19c-.7.83-1.81,1.5-2.91,1.4-.14-1.13.41-2.33,1.04-3.07C9.64.66,10.85.05,11.84,0c.12,1.18-.34,2.33-1.01,3.19h0ZM11.82,4.81c.62.05,2.43.24,3.58,1.98-.1.07-2.14,1.27-2.11,3.79.02,3.01,2.59,4.01,2.62,4.04-.02.07-.41,1.42-1.34,2.81-.82,1.22-1.66,2.42-3,2.45-1.3.02-1.73-.78-3.22-.78s-1.97.76-3.19.81c-1.3.05-2.28-1.3-3.1-2.52C.37,14.91-.9,10.41.82,7.38c.84-1.52,2.38-2.47,4.03-2.49,1.27-.02,2.45.86,3.22.86s2.14-1.03,3.75-.93h0Z"/>
</svg>